<svg width="21" height="32" viewBox="0 0 21 32" fill="none" xmlns="http://www.w3.org/2000/svg">
<path d="M0 19.6299V24.3113H1.32915C1.53915 24.3113 1.74659 24.3062 1.95659 24.296C2.64037 24.2627 3.32159 24.1705 3.99 24.0194C4.32037 23.9451 4.64561 23.8555 4.96829 23.7505V32.0045H10.1133V20.329C10.71 19.6427 11.1018 19.0434 11.3118 18.7131C11.4578 18.4851 11.8189 17.9063 12.1928 17.1099C12.4617 16.5388 12.6948 15.9498 12.8919 15.3479C13.0968 14.723 13.2659 14.0879 13.399 13.4451C13.5399 12.7741 13.6423 12.0955 13.7089 11.4117C13.7806 10.6998 13.8139 9.98268 13.8139 9.26561C13.8139 3.35488 11.0583 0 6.90695 0C2.92207 0 0.299634 3.02195 0.299634 8.16951C0.299634 12.0212 1.75939 15.7756 4.25122 18.795C3.28829 19.3251 2.22549 19.6248 1.0628 19.6248H0V19.6299ZM8.83281 8.90195C8.83281 11.2606 8.36671 13.4169 7.50366 15.1789C6.10793 13.1199 5.31146 10.6946 5.31146 8.17207C5.31146 5.91329 5.94146 4.68403 7.00427 4.68403C8.06707 4.68403 8.83024 6.01317 8.83024 8.90195H8.83281Z" fill="#005251"/>
<circle cx="18.034" cy="29.0594" r="2.94512" fill="#FFC53E"/>
</svg>
