<svg width="1440" height="1024" viewBox="0 0 1440 1024" fill="none" xmlns="http://www.w3.org/2000/svg">
<rect width="1440" height="1024" fill="#005251"/>
<path d="M679 526.65V544.93H684.19C685.01 544.93 685.82 544.91 686.64 544.87C689.31 544.74 691.97 544.38 694.58 543.79C695.87 543.5 697.14 543.15 698.4 542.74V574.97H718.49V529.38C720.82 526.7 722.35 524.36 723.17 523.07C723.74 522.18 725.15 519.92 726.61 516.81C727.66 514.58 728.57 512.28 729.34 509.93C730.14 507.49 730.8 505.01 731.32 502.5C731.87 499.88 732.27 497.23 732.53 494.56C732.81 491.78 732.94 488.98 732.94 486.18C732.94 463.1 722.18 450 705.97 450C690.41 450 680.17 461.8 680.17 481.9C680.17 496.94 685.87 511.6 695.6 523.39C691.84 525.46 687.69 526.63 683.15 526.63H679V526.65ZM713.49 484.76C713.49 493.97 711.67 502.39 708.3 509.27C702.85 501.23 699.74 491.76 699.74 481.91C699.74 473.09 702.2 468.29 706.35 468.29C710.5 468.29 713.48 473.48 713.48 484.76H713.49Z" fill="#F9F3F1"/>
<circle cx="749.44" cy="563.47" r="11.5" fill="#FFC53E"/>
</svg>
